# xmcd
#
# Track frame offsets:
#	150
#	8860
#	24092
#	47689
#	65087
#	88275
#	106150
#	124822
#	145612
#	165067
#	183170
#	198437
#	211860
#	230685
#	243920
#	263945
#	283470
#	298187
#	311762
#	323762
#
# Disc length: 4546 seconds
#
# Revision: 0
# Processed by: cddbd v1.5.2PL0 Copyright (c) Steve Scherf et al.
# Submitted via: audiograbber 1.83.01
#
DISCID=1f11c014
DTITLE=Skip James - Blues From The Delta
DYEAR=1968
DGENRE=Blues
TTITLE0=I'm So Glad
TTITLE1=Little Cow, Little Calf Blues
TTITLE2=Devil Got My Woman
TTITLE3=22-20 Blues
TTITLE4=Special Rider Blues
TTITLE5=Mistreating Child Abuse
TTITLE6=Sick Bed Blues
TTITLE7=Catfish Blues
TTITLE8=Lorenzo Blues
TTITLE9=Careless Love
TTITLE10=Hard Time Killing Floor Blues
TTITLE11=Crow Jane
TTITLE12=Washington D.C. Hospital Centre Blues
TTITLE13=How Long Blues
TTITLE14=Chery Hall Blues
TTITLE15=Cypress Grove
TTITLE16=Look Down The Road
TTITLE17=She's All The World To me
TTITLE18=Everybody Leaving here
TTITLE19=Good Road Camp Blues
EXTD=
EXTT0=
EXTT1=
EXTT2=
EXTT3=
EXTT4=
EXTT5=
EXTT6=
EXTT7=
EXTT8=
EXTT9=
EXTT10=
EXTT11=
EXTT12=
EXTT13=
EXTT14=
EXTT15=
EXTT16=
EXTT17=
EXTT18=
EXTT19=
PLAYORDER=
